<svg width="1024" height="1024" viewBox="0 0 1024 1024" fill="none" xmlns="http://www.w3.org/2000/svg">
<path d="M511.655 817.89C457.077 817.89 407.077 799.698 374.8 772.35C358.486 777.28 337.476 785.144 324.331 794.885C313.063 803.219 314.471 811.787 316.467 815.19C325.387 830.331 469.87 824.815 511.655 820.12V817.89ZM511.655 817.89C566.232 817.89 616.232 799.698 648.509 772.35C664.824 777.28 685.833 785.144 698.978 794.885C710.246 803.219 708.838 811.787 706.842 815.19C697.922 830.331 553.439 824.815 511.655 820.12V817.89Z" fill="#606E7A"/>
<path d="M512.006 491.13C602.03 490.543 674.213 473.055 698.626 466.364C704.495 464.721 707.546 461.904 707.546 461.904C707.546 461.083 707.898 447.233 707.898 440.073C707.898 319.885 651.208 199.111 511.537 199.111C371.983 199.111 315.175 319.885 315.175 440.073C315.175 447.233 315.528 461.083 315.528 461.904C315.528 461.904 318.11 464.604 322.687 465.895C345.222 472.233 418.814 490.425 511.067 491.13H512.006ZM756.725 591.247C751.091 573.289 743.579 552.28 735.833 532.209C735.833 532.209 731.373 531.623 729.143 532.327C659.894 552.397 575.974 565.308 512.006 564.486H511.302C447.687 565.191 364.354 552.632 295.34 532.679C292.758 531.975 287.476 532.209 287.476 532.209C279.729 552.28 272.1 573.289 266.584 591.247C239.941 676.928 248.626 712.374 255.199 713.195C269.283 714.956 310.011 648.759 310.011 648.759C310.011 716.012 370.692 819.299 509.776 820.238H513.415C652.499 819.299 713.18 716.012 713.18 648.759C713.18 648.759 753.908 714.956 767.992 713.195C774.682 712.374 783.251 676.928 756.725 591.247Z" fill="#606E7A"/>
<path d="M462.007 376.693C443.11 377.515 426.913 356.036 425.856 328.571C424.8 301.106 439.354 278.219 458.251 277.397C477.147 276.576 493.345 298.055 494.401 325.519C495.457 352.984 480.903 375.872 462.007 376.693ZM597.453 328.571C596.396 356.036 580.316 377.515 561.302 376.693C542.406 375.872 527.852 352.867 528.908 325.519C529.964 298.055 546.044 276.576 565.058 277.397C583.955 278.219 598.509 301.106 597.453 328.571Z" fill="#606E7A"/>
<path d="M485.246 329.04C486.068 339.838 480.199 349.463 471.983 350.519C463.767 351.575 456.49 343.594 455.551 332.796C454.73 321.998 460.598 312.374 468.814 311.317C477.03 310.261 484.425 318.125 485.246 329.04ZM537.241 332.561C538.885 329.51 550.27 313.782 573.861 319.533C580.082 321.059 582.899 323.289 583.486 324.111C584.425 325.402 584.659 327.28 583.72 329.744C581.96 334.674 578.204 334.557 576.209 333.5C574.917 332.914 558.486 321.881 543.345 338.313C542.288 339.486 540.41 339.838 538.65 338.43C537.007 337.139 536.303 334.439 537.241 332.561Z" fill="#606E7A"/>
<path d="M512.007 560.496H511.302C467.758 560.965 415.058 555.214 364.002 545.238C359.659 570.59 356.96 602.397 359.307 640.308C365.058 736.2 421.983 796.529 509.894 797.35H513.415C601.326 796.529 658.251 736.2 664.002 640.308C666.232 602.397 663.65 570.59 659.307 545.238C608.251 555.332 555.551 561.083 512.007 560.496Z" fill="#606E7A"/>
<g filter="url(#filter0_d_1015_2)">
<path d="M707.664 461.905C707.664 461.905 623.627 488.431 512.007 489.252H511.303C399.918 488.548 315.998 462.022 315.646 461.905L287.477 532.21C357.899 553.454 445.223 567.186 511.186 566.365H511.89C577.852 567.186 665.176 553.454 735.716 532.21L707.664 461.905Z" fill="#727C86"/>
</g>
<g filter="url(#filter1_d_1015_2)">
<path d="M388.181 552.515V646.881C388.181 646.881 431.373 655.566 474.683 649.58V562.491C447.218 560.965 417.641 557.562 388.181 552.515Z" fill="#727C86"/>
</g>
<defs>
<filter id="filter0_d_1015_2" x="247.477" y="447.905" width="528.239" height="184.495" filterUnits="userSpaceOnUse" color-interpolation-filters="sRGB">
<feFlood flood-opacity="0" result="BackgroundImageFix"/>
<feColorMatrix in="SourceAlpha" type="matrix" values="0 0 0 0 0 0 0 0 0 0 0 0 0 0 0 0 0 0 127 0" result="hardAlpha"/>
<feOffset dy="26"/>
<feGaussianBlur stdDeviation="20"/>
<feComposite in2="hardAlpha" operator="out"/>
<feColorMatrix type="matrix" values="0 0 0 0 0 0 0 0 0 0 0 0 0 0 0 0 0 0 0.05 0"/>
<feBlend mode="normal" in2="BackgroundImageFix" result="effect1_dropShadow_1015_2"/>
<feBlend mode="normal" in="SourceGraphic" in2="effect1_dropShadow_1015_2" result="shape"/>
</filter>
<filter id="filter1_d_1015_2" x="348.181" y="538.515" width="166.502" height="179.17" filterUnits="userSpaceOnUse" color-interpolation-filters="sRGB">
<feFlood flood-opacity="0" result="BackgroundImageFix"/>
<feColorMatrix in="SourceAlpha" type="matrix" values="0 0 0 0 0 0 0 0 0 0 0 0 0 0 0 0 0 0 127 0" result="hardAlpha"/>
<feOffset dy="26"/>
<feGaussianBlur stdDeviation="20"/>
<feComposite in2="hardAlpha" operator="out"/>
<feColorMatrix type="matrix" values="0 0 0 0 0 0 0 0 0 0 0 0 0 0 0 0 0 0 0.05 0"/>
<feBlend mode="normal" in2="BackgroundImageFix" result="effect1_dropShadow_1015_2"/>
<feBlend mode="normal" in="SourceGraphic" in2="effect1_dropShadow_1015_2" result="shape"/>
</filter>
</defs>
</svg>
